<?xml version="1.0" encoding="UTF-8" standalone="no"?>
<svg
   xmlns:dc="http://purl.org/dc/elements/1.1/"
   xmlns:cc="http://creativecommons.org/ns#"
   xmlns:rdf="http://www.w3.org/1999/02/22-rdf-syntax-ns#"
   xmlns:svg="http://www.w3.org/2000/svg"
   xmlns="http://www.w3.org/2000/svg"
   xmlns:sodipodi="http://sodipodi.sourceforge.net/DTD/sodipodi-0.dtd"
   xmlns:inkscape="http://www.inkscape.org/namespaces/inkscape"
   width="30"
   viewBox="0 0 30 30"
   version="1.1"
   height="30"
   id="svg14"
   sodipodi:docname="Archlinux-icon-crystal-64.svg"
   inkscape:version="0.92.4 5da689c313, 2019-01-14">
  <metadata
     id="metadata18">
    <rdf:RDF>
      <cc:Work
         rdf:about="">
        <dc:format>image/svg+xml</dc:format>
        <dc:type
           rdf:resource="http://purl.org/dc/dcmitype/StillImage" />
      </cc:Work>
    </rdf:RDF>
  </metadata>
  <sodipodi:namedview
     pagecolor="#ffffff"
     bordercolor="#666666"
     borderopacity="1"
     objecttolerance="10"
     gridtolerance="10"
     guidetolerance="10"
     inkscape:pageopacity="0"
     inkscape:pageshadow="2"
     inkscape:window-width="1904"
     inkscape:window-height="1019"
     id="namedview16"
     showgrid="false"
     inkscape:zoom="3.6307692"
     inkscape:cx="32.247"
     inkscape:cy="31.709907"
     inkscape:window-x="1926"
     inkscape:window-y="53"
     inkscape:window-maximized="0"
     inkscape:current-layer="svg14" />
  <defs
     id="defs7">
    <linearGradient
       id="lg"
       y1="9.9084301"
       x2="25.431995"
       x1="34.76569"
       y2="28.426884"
       gradientTransform="matrix(0.43684458,0,0,0.50298497,-0.11859375,-0.0983532)"
       gradientUnits="userSpaceOnUse">
      <stop
         stop-color="#fff"
         stop-opacity="0"
         offset="0"
         id="stop2" />
      <stop
         stop-color="#fff"
         stop-opacity=".27451"
         offset="1"
         id="stop4" />
    </linearGradient>
  </defs>
  <path
     d="m 15,4.24e-5 c -1.335469,3.2738858 -2.146406,5.4182735 -3.632812,8.5949876 0.91125,0.966092 2.031562,2.087341 3.848906,3.35812 C 13.262344,11.149245 11.930625,10.344403 10.935,9.506748 9.0323435,13.477054 6.0492187,19.13064 0,30 4.753125,27.255941 8.4384375,25.562819 11.8725,24.916882 11.725313,24.283602 11.647031,23.595478 11.652656,22.880635 l 0.0038,-0.15 c 0.07547,-3.045933 1.660312,-5.388273 3.537655,-5.229367 1.876875,0.158906 3.338438,2.758121 3.26297,5.804523 -0.01453,0.573749 -0.0811,1.124998 -0.194063,1.636872 C 21.66,25.60735 25.310156,27.292504 30,30 c -0.924844,-1.702498 -1.753125,-3.236714 -2.541563,-4.698743 -1.241718,-0.962343 -2.536406,-2.214372 -5.178281,-3.570464 1.815938,0.47203 3.117188,1.017655 4.130625,1.626091 C 18.396094,8.434249 17.748281,6.450033 15,4.24e-5 V 0 Z"
     id="path9"
     inkscape:connector-curvature="0"
     style="fill:#1793d1;stroke-width:0.46874964" />
  <path
     id="path2522"
     d="M 23.443594,17.830841 C 16.941094,9.005697 15.434063,1.8924247 15.052031,0.1941468 18.520781,8.194292 18.496875,8.292729 23.443594,17.830841 Z"
     inkscape:connector-curvature="0"
     style="fill:#ffffff;fill-opacity:0.16567999;stroke-width:0.46874964" />
  <path
     d="m 15.058594,0.1172338 c -0.16875,0.4146 -0.328125,0.8188121 -0.48375,1.20117 -0.170625,0.4193444 -0.336563,0.8233588 -0.497813,1.2158418 -0.16125,0.3924847 -0.324844,0.7644847 -0.483281,1.1425773 -0.158906,0.3780459 -0.306562,0.7518274 -0.46875,1.1279515 -0.162187,0.3759362 -0.340312,0.7560927 -0.512812,1.1423427 -0.1725,0.3867179 -0.3525,0.7771859 -0.541875,1.1868729 -0.189375,0.409218 -0.388125,0.844218 -0.600938,1.289061 -0.0286,0.06 -0.05813,0.129374 -0.08765,0.190312 0.908907,0.962811 2.029688,2.075153 3.837657,3.339839 -1.953282,-0.803905 -3.28125,-1.608748 -4.277344,-2.446403 -0.05157,0.105937 -0.09281,0.199219 -0.14625,0.3075 -0.196875,0.40828 -0.408281,0.812342 -0.63,1.259998 -0.05297,0.105 -0.09187,0.200156 -0.14625,0.307499 -0.2348444,0.470625 -0.4809379,0.957655 -0.7471879,1.479373 -0.052968,0.103125 -0.106875,0.188438 -0.16125,0.292969 C 8.9503156,13.466794 8.4360972,14.452573 7.9101597,15.454291 7.603125,16.03929 7.3621875,16.518352 7.01625,17.168038 6.9182812,17.354601 6.7167187,17.728194 6.6646875,17.8271 10.473281,15.683509 14.582344,12.569607 22.045781,15.234447 c -0.373594,-0.707811 -0.732187,-1.368279 -1.054687,-1.992184 -0.3225,-0.624374 -0.615,-1.205155 -0.893438,-1.75781 C 19.819219,10.931797 19.561875,10.410548 19.320937,9.916955 19.080469,9.423362 18.857344,8.957425 18.647344,8.510707 18.437344,8.063989 18.2325,7.634146 18.046875,7.221646 17.860781,6.809615 17.687813,6.41071 17.519531,6.02071 17.35125,5.6302421 17.19375,5.2435244 17.035781,4.8633679 16.878281,4.4829776 16.720781,4.1182438 16.567031,3.7354174 16.500467,3.5688229 16.44375,3.3914479 16.376719,3.2226988 15.960469,2.2454029 15.552187,1.2766862 15.058594,0.1172338 v 1.06e-5 z"
     id="path12"
     inkscape:connector-curvature="0"
     style="fill:url(#lg);stroke-width:0.46874964" />
</svg>
